<svg width="16" height="19" viewBox="0 0 16 19" fill="none" xmlns="http://www.w3.org/2000/svg">
<path d="M15.5002 8.09791H8.7202V6.32491H11.2402C11.2796 6.32505 11.3187 6.31739 11.3552 6.30236C11.3916 6.28733 11.4248 6.26524 11.4526 6.23735C11.4805 6.20947 11.5026 6.17634 11.5176 6.13988C11.5327 6.10342 11.5403 6.06435 11.5402 6.02491V3.06991C11.54 2.99042 11.5083 2.91425 11.4521 2.85804C11.3959 2.80183 11.3197 2.77015 11.2402 2.76991H8.75365V0.999476C8.5 0.699476 8.5 0.999976 8.5 0.999976C8.5 0.999976 8.07957 1.00001 8 1.00001C7.92043 1.00001 8.5 0.999971 8.75365 0.999476C8.5 0.699128 8 0.92044 8 1.00001V2.76991H0.500197C0.420705 2.77015 0.344537 2.80183 0.288327 2.85804C0.232118 2.91425 0.200435 2.99042 0.200197 3.06991V6.02491C0.20006 6.06435 0.207726 6.10342 0.222754 6.13988C0.237782 6.17634 0.259874 6.20947 0.287759 6.23735C0.315644 6.26524 0.34877 6.28733 0.38523 6.30236C0.42169 6.31739 0.460762 6.32505 0.500197 6.32491H8V8.09791H4.3402C4.30076 8.09778 4.26169 8.10544 4.22523 8.12047C4.18877 8.1355 4.15564 8.15759 4.12776 8.18548C4.09987 8.21336 4.07778 8.24649 4.06275 8.28295C4.04773 8.31941 4.04006 8.35848 4.0402 8.39791V11.3529C4.04043 11.4324 4.07212 11.5086 4.12833 11.5648C4.18454 11.621 4.2607 11.6527 4.3402 11.6529H8V13.4229H1.7302C1.69076 13.4228 1.65169 13.4304 1.61523 13.4455C1.57877 13.4605 1.54565 13.4826 1.51776 13.5105C1.48988 13.5384 1.46778 13.5715 1.45275 13.6079C1.43773 13.6444 1.43006 13.6835 1.4302 13.7229V16.6779C1.43043 16.7574 1.46212 16.8336 1.51833 16.8898C1.57454 16.946 1.65071 16.9777 1.7302 16.9779H8V18.9999C8.7202 18.9999 8.5 18.9999 8.5 18.9999C8.5 18.9999 8.34063 18.9999 8.4202 18.9999C8.4202 18.9999 8 18.9999 8.5 18.9999C8.21484 18.9999 8.7202 18.9999 8.7202 18.9999V16.9779H14.2102C14.2897 16.9777 14.3659 16.946 14.4221 16.8898C14.4783 16.8336 14.51 16.7574 14.5102 16.6779V13.7229C14.5103 13.6835 14.5027 13.6444 14.4876 13.6079C14.4726 13.5715 14.4505 13.5384 14.4226 13.5105C14.3947 13.4826 14.3616 13.4605 14.3252 13.4455C14.2887 13.4304 14.2496 13.4228 14.2102 13.4229H8.7202V11.6529H15.5002C15.5797 11.6527 15.6559 11.621 15.7121 11.5648C15.7683 11.5086 15.8 11.4324 15.8002 11.3529V8.39791C15.8003 8.35848 15.7927 8.31941 15.7776 8.28295C15.7626 8.24649 15.7405 8.21336 15.7126 8.18548C15.6847 8.15759 15.6516 8.1355 15.6152 8.12047C15.5787 8.10544 15.5396 8.09778 15.5002 8.09791ZM8.1202 11.0529H4.6402V8.69792H8.1202V11.0529ZM8 5.72492H0.800197V3.36991H8V5.72492ZM13.9102 14.0229V16.3779H8.7202V14.0229H13.9102Z" fill="black"/>
</svg>
