<svg width="18" height="18" viewBox="0 0 18 18" fill="none" xmlns="http://www.w3.org/2000/svg">
<mask id="mask0_120_469" style="mask-type:luminance" maskUnits="userSpaceOnUse" x="0" y="0" width="18" height="18">
<path d="M0 0H18V18H0V0Z" fill="white"/>
</mask>
<g mask="url(#mask0_120_469)">
<path d="M9 0.942255L17.4727 7.09783L14.2359 17.0577H3.76407L0.527344 7.09783L9 0.942255Z" stroke="black" stroke-width="1.4" stroke-miterlimit="10" stroke-linecap="round" stroke-linejoin="round"/>
</g>
<path d="M8.99989 5.09976L14.9389 7.92122L11.5886 13.4143L5.43652 14.7555V8.69311L8.99989 5.09976Z" stroke="black" stroke-width="1.4" stroke-miterlimit="10" stroke-linecap="round" stroke-linejoin="round"/>
<mask id="mask1_120_469" style="mask-type:luminance" maskUnits="userSpaceOnUse" x="0" y="0" width="18" height="18">
<path d="M0 0H18V18H0V0Z" fill="white"/>
</mask>
<g mask="url(#mask1_120_469)">
<path d="M9 0.942255V9.85071M9 9.85071L17.4727 7.09783M9 9.85071L14.2359 17.0577M9 9.85071L3.76407 17.0577M9 9.85071L0.527344 7.09783" stroke="black" stroke-width="1.4" stroke-miterlimit="10" stroke-linecap="round" stroke-linejoin="round"/>
</g>
</svg>
