<svg width="18" height="18" viewBox="0 0 18 18" fill="none" xmlns="http://www.w3.org/2000/svg">
<g id="Information Icon">
<path id="Information Icon_2" d="M8.99955 0C13.967 0 18 4.03301 18 8.99955C18 13.967 13.967 18 8.99955 18C4.03301 18 0 13.967 0 8.99955C0 4.03301 4.03301 0 8.99955 0ZM8.99955 7.2018C8.62686 7.2018 8.32438 7.50428 8.32438 7.87697V12.8282C8.32438 13.2009 8.62686 13.5034 8.99955 13.5034C9.37224 13.5034 9.67472 13.2009 9.67472 12.8282V7.87697C9.67472 7.50428 9.37224 7.2018 8.99955 7.2018ZM8.99775 4.50113C8.50083 4.50113 8.09752 4.90443 8.09752 5.40135C8.09752 5.89827 8.50083 6.30158 8.99775 6.30158C9.49467 6.30158 9.89797 5.89827 9.89797 5.40135C9.89797 4.90443 9.49467 4.50113 8.99775 4.50113Z" fill="#026DE5"/>
</g>
</svg>
