<svg width="36" height="36" viewBox="0 0 36 36" fill="none" xmlns="http://www.w3.org/2000/svg">
<path d="M26.9908 0H9.00916C4.0414 0 0 4.22091 0 9.40933V26.5907C0 31.7791 4.0414 36 9.00916 36H26.9908C31.9586 36 36 31.7791 36 26.5907V9.40933C36 4.22091 31.9586 0 26.9908 0ZM3.17815 9.40933C3.17815 6.05174 5.79437 3.31931 9.00916 3.31931H26.9908C30.2056 3.31931 32.8219 6.05174 32.8219 9.40933V26.5907C32.8219 29.9483 30.2056 32.6807 26.9908 32.6807H9.00916C5.79437 32.6807 3.17815 29.9483 3.17815 26.5907V9.40933Z" fill="black" fill-opacity="0.7"/>
<path d="M17.3801 27.8078C21.9997 27.8078 25.7601 23.8824 25.7601 19.0555C25.7601 14.2286 22.0017 10.3032 17.3801 10.3032C12.7584 10.3032 9 14.2286 9 19.0555C9 23.8824 12.7584 27.8078 17.3801 27.8078ZM17.3801 13.6247C20.2487 13.6247 22.5819 16.0615 22.5819 19.0576C22.5819 22.0537 20.2487 24.4906 17.3801 24.4906C14.5114 24.4906 12.1781 22.0537 12.1781 19.0576C12.1781 16.0615 14.5114 13.6247 17.3801 13.6247Z" fill="black" fill-opacity="0.7"/>
<path d="M27.5359 11.7164C28.7798 11.7164 29.7938 10.6595 29.7938 9.35819C29.7938 8.05683 28.7819 7 27.5359 7C26.2899 7 25.278 8.05683 25.278 9.35819C25.278 10.6595 26.2899 11.7164 27.5359 11.7164Z" fill="black" fill-opacity="0.7"/>
</svg>
