<svg width="25" height="24" viewBox="0 0 25 24" fill="none" xmlns="http://www.w3.org/2000/svg">
    <path d="M12.926 5.843A6.148 6.148 0 0 0 6.769 12a6.148 6.148 0 0 0 6.157 6.157A6.148 6.148 0 0 0 19.083 12a6.148 6.148 0 0 0-6.157-6.157zm0 10.158A4.01 4.01 0 0 1 8.924 12a4.01 4.01 0 0 1 4.002-4.002A4.01 4.01 0 0 1 16.928 12 4.01 4.01 0 0 1 12.926 16zm6.41-11.845c-.796 0-1.439.642-1.439 1.438 0 .795.643 1.438 1.438 1.438a1.434 1.434 0 0 0 1.33-1.989 1.436 1.436 0 0 0-1.33-.887zM24.927 12c0-1.657.015-3.3-.078-4.953-.093-1.922-.532-3.627-1.937-5.032C21.506.607 19.803.172 17.883.08 16.224-.014 14.582 0 12.928 0c-1.657 0-3.3-.015-4.953.078C6.054.172 4.349.61 2.944 2.015c-1.408 1.408-1.843 3.11-1.936 5.032C.915 8.704.93 10.346.93 12c0 1.654-.015 3.299.078 4.953.093 1.921.531 3.626 1.936 5.031 1.408 1.408 3.11 1.843 5.032 1.937 1.657.093 3.299.078 4.953.078 1.657 0 3.3.015 4.953-.078 1.921-.093 3.627-.532 5.031-1.937 1.409-1.408 1.844-3.11 1.937-5.031.096-1.654.078-3.296.078-4.953zm-2.642 7.078c-.219.547-.483.955-.907 1.375a3.839 3.839 0 0 1-1.374.907c-1.58.627-5.329.486-7.079.486s-5.503.141-7.082-.483a3.814 3.814 0 0 1-1.375-.907 3.84 3.84 0 0 1-.906-1.375C2.938 17.5 3.079 13.75 3.079 12s-.14-5.503.484-7.082c.219-.546.483-.955.906-1.375a3.88 3.88 0 0 1 1.375-.906c1.58-.625 5.332-.484 7.082-.484s5.503-.14 7.082.484c.546.219.954.483 1.375.906.423.423.687.829.906 1.375.624 1.58.483 5.332.483 7.082s.142 5.5-.486 7.078z" fill="#D1D1D1"/>
</svg>
