<svg width="25" height="24" viewBox="0 0 25 24" fill="none" xmlns="http://www.w3.org/2000/svg">
    <path d="M23 0H2.858A1.93 1.93 0 0 0 .93 1.929v20.142A1.93 1.93 0 0 0 2.86 24H23a1.93 1.93 0 0 0 1.93-1.929V1.929A1.93 1.93 0 0 0 23 0zm0 22.08c-13.434-.003-20.15-.006-20.15-.009.002-13.434.005-20.151.008-20.151 13.434.003 20.151.006 20.151.009-.003 13.434-.006 20.151-.009 20.151zM4.487 8.997h3.561v11.454h-3.56V8.997zM6.27 7.431a2.066 2.066 0 0 0 1.46-3.523 2.064 2.064 0 1 0-1.46 3.523zm7.57 7.353c0-1.494.284-2.94 2.135-2.94 1.824 0 1.851 1.707 1.851 3.036v5.571h3.558v-6.282c0-3.084-.666-5.457-4.269-5.457-1.73 0-2.892.951-3.369 1.851h-.048V8.997H10.28v11.454h3.558v-5.667z" fill="#D1D1D1"/>
</svg>
