<svg width="36" height="36" viewBox="0 0 36 36" fill="none" xmlns="http://www.w3.org/2000/svg">
<path d="M10.1929 12.6207C9.75189 12.2113 9.53259 11.7045 9.53259 11.1015C9.53259 10.4985 9.75307 9.96942 10.1929 9.55882C10.6338 9.14939 11.2015 8.94409 11.897 8.94409C12.5924 8.94409 13.1378 9.14939 13.5776 9.55882C14.0186 9.96825 14.2379 10.4833 14.2379 11.1015C14.2379 11.7198 14.0174 12.2113 13.5776 12.6207C13.1366 13.0302 12.5772 13.2355 11.897 13.2355C11.2167 13.2355 10.6338 13.0302 10.1929 12.6207ZM13.8673 14.9694V27.5221H9.90201V14.9694H13.8673Z" fill="black" fill-opacity="0.7"/>
<path d="M27.0671 16.21C27.9315 17.1485 28.3631 18.4367 28.3631 20.0767V27.301H24.5972V20.5859C24.5972 19.7588 24.3826 19.1159 23.9545 18.6584C23.5265 18.2009 22.9494 17.9709 22.227 17.9709C21.5045 17.9709 20.9275 18.1997 20.4994 18.6584C20.0714 19.1159 19.8567 19.7588 19.8567 20.5859V27.301H16.0686V14.9348H19.8567V16.5749C20.2402 16.0282 20.7575 15.5965 21.4072 15.2786C22.0569 14.9606 22.7876 14.8022 23.6003 14.8022C25.0476 14.8022 26.2039 15.2715 27.0671 16.2089V16.21Z" fill="black" fill-opacity="0.7"/>
<path d="M26.9908 0H9.00916C4.0414 0 0 4.22091 0 9.40933V26.5907C0 31.7791 4.0414 36 9.00916 36H26.9908C31.9586 36 36 31.7791 36 26.5907V9.40933C36 4.22091 31.9586 0 26.9908 0ZM3.17815 9.40933C3.17815 6.05174 5.79437 3.31931 9.00916 3.31931H26.9908C30.2056 3.31931 32.8219 6.05174 32.8219 9.40933V26.5907C32.8219 29.9483 30.2056 32.6807 26.9908 32.6807H9.00916C5.79437 32.6807 3.17815 29.9483 3.17815 26.5907V9.40933Z" fill="black" fill-opacity="0.7"/>
</svg>
