<svg width="18" height="18" viewBox="0 0 18 18" fill="none" xmlns="http://www.w3.org/2000/svg">
    <path d="M4.958 7.398c.605 1.097 1.302 2.15 2.208 3.11.908.965 2.038 1.844 3.5 2.595a.362.362 0 0 0 .303.016c.14-.053.281-.169.42-.309.109-.109.244-.283.384-.472.563-.744 1.259-1.667 2.242-1.205.022.01.038.022.06.031l3.279 1.895c.01.006.022.016.03.022.433.299.612.76.616 1.283 0 .531-.195 1.129-.48 1.634-.378.667-.935 1.108-1.577 1.4-.61.283-1.29.434-1.944.531-1.026.152-1.987.055-2.97-.248-.96-.3-1.93-.793-2.987-1.45l-.078-.05c-.485-.304-1.01-.63-1.523-1.014-1.882-1.428-3.8-3.49-5.05-5.76C.345 7.5-.226 5.443.086 3.484.258 2.41.717 1.432 1.516.787 2.214.222 3.153-.087 4.37.022c.14.01.264.09.33.212L6.8 3.806c.308.4.346.798.177 1.195-.139.325-.42.626-.804.905a6.1 6.1 0 0 1-.39.3c-.47.342-1.005.738-.822 1.204l-.004-.012z" fill="#000"/>
</svg>
