<svg width="109" height="36" viewBox="0 0 109 36" fill="none" xmlns="http://www.w3.org/2000/svg">
<g id="VisaLand Logo">
<path id="Vector" fill-rule="evenodd" clip-rule="evenodd" d="M31.0143 31.1978H42.1028V36H31.0143V31.1978Z" fill="black"/>
<path id="Vector_2" fill-rule="evenodd" clip-rule="evenodd" d="M29.1802 0.0500183H43.9537L36.5503 14.8402L29.1802 0.0500183Z" fill="#00554E"/>
<path id="Vector_3" fill-rule="evenodd" clip-rule="evenodd" d="M33.4988 0.0500183H39.6684L36.5503 6.21954L33.4988 0.0500183Z" fill="black"/>
<path id="Vector_4" fill-rule="evenodd" clip-rule="evenodd" d="M53.1746 0.0500183H60.5447V14.8402H53.1746V0.0500183Z" fill="#00554E"/>
<path id="Vector_5" fill-rule="evenodd" clip-rule="evenodd" d="M58.6938 0.0500183H60.5447V14.8402H58.6938V0.0500183Z" fill="black"/>
<path id="Vector_6" fill-rule="evenodd" clip-rule="evenodd" d="M93.7434 14.8402H108.517L101.097 0.0500183L93.7434 14.8402Z" fill="#00554E"/>
<path id="Vector_7" fill-rule="evenodd" clip-rule="evenodd" d="M102.347 14.8402H108.517L105.415 8.67068L102.347 14.8402Z" fill="black"/>
<path id="Vector_8" fill-rule="evenodd" clip-rule="evenodd" d="M49.4562 36H64.2631L56.843 21.2098L49.4562 36Z" fill="#00554E"/>
<path id="Vector_9" fill-rule="evenodd" clip-rule="evenodd" d="M49.4562 36H55.6258L52.5243 29.8472L49.4562 36Z" fill="black"/>
<path id="Vector_10" fill-rule="evenodd" clip-rule="evenodd" d="M78.9866 21.2098H86.39V36H78.9866V21.2098Z" fill="#00554E"/>
<path id="Vector_11" fill-rule="evenodd" clip-rule="evenodd" d="M78.9866 21.2098H81.1042V36H78.9866V21.2098Z" fill="black"/>
<path id="Vector_12" fill-rule="evenodd" clip-rule="evenodd" d="M71.5998 21.2098L86.39 36H71.5998V21.2098Z" fill="#00554E"/>
<path id="Vector_13" fill-rule="evenodd" clip-rule="evenodd" d="M71.5998 29.8472L77.7693 36H71.5998V29.8472Z" fill="black"/>
<path id="Vector_14" fill-rule="evenodd" clip-rule="evenodd" d="M31.0143 21.2098H38.4344V36H31.0143V21.2098Z" fill="#00554E"/>
<path id="Vector_15" fill-rule="evenodd" clip-rule="evenodd" d="M93.7434 21.1598H101.113C105.182 21.1598 108.5 24.4947 108.5 28.5465C108.5 32.6151 105.165 35.9333 101.113 35.9333H93.7267V21.1598H93.7434Z" fill="#00554E"/>
<path id="Vector_16" fill-rule="evenodd" clip-rule="evenodd" d="M93.7434 21.2098H98.0454V36H93.7434V21.2098Z" fill="black"/>
<path id="Vector_17" fill-rule="evenodd" clip-rule="evenodd" d="M76.5354 0H86.3733V4.95229H71.5998C71.5998 2.21769 73.8175 0 76.5354 0Z" fill="#00554E"/>
<path id="Vector_18" fill-rule="evenodd" clip-rule="evenodd" d="M76.5354 10.0546H86.3733C86.3733 7.33672 84.1389 5.10236 81.421 5.10236H71.5831C71.5998 7.82028 73.8175 10.0546 76.5354 10.0546Z" fill="#0E6C52"/>
<path id="Vector_19" fill-rule="evenodd" clip-rule="evenodd" d="M76.5354 9.8879H86.3733C86.3733 7.16998 84.1389 4.93561 81.421 4.93561H71.5831C71.5998 7.65353 73.8175 9.8879 76.5354 9.8879Z" fill="black"/>
<path id="Vector_20" fill-rule="evenodd" clip-rule="evenodd" d="M71.5998 9.88791H86.39C86.39 12.6058 84.1556 14.8402 81.4377 14.8402H71.5998V9.88791Z" fill="#00554E"/>
<path id="Vector_21" fill-rule="evenodd" clip-rule="evenodd" d="M11.522 23.7276V12.189L0 17.9583L11.522 23.7276Z" fill="black"/>
<path id="Vector_22" fill-rule="evenodd" clip-rule="evenodd" d="M11.522 35.9166V24.3946L0 30.1473L11.522 35.9166Z" fill="#00554E"/>
<path id="Vector_23" fill-rule="evenodd" clip-rule="evenodd" d="M11.8555 35.9166V24.3946L23.4108 30.1473L11.8555 35.9166Z" fill="#00554E"/>
<path id="Vector_24" fill-rule="evenodd" clip-rule="evenodd" d="M11.8555 24.0611L23.4108 29.8138V18.2918L11.8555 24.0611Z" fill="#00554E"/>
<path id="Vector_25" fill-rule="evenodd" clip-rule="evenodd" d="M11.8555 23.7276V12.189L23.4108 17.9583L11.8555 23.7276Z" fill="black"/>
<path id="Vector_26" fill-rule="evenodd" clip-rule="evenodd" d="M11.522 11.8555L0 17.6248V6.08615L11.522 11.8555Z" fill="black"/>
<path id="Vector_27" fill-rule="evenodd" clip-rule="evenodd" d="M0 5.75266L11.522 11.522V0L0 5.75266Z" fill="#00554E"/>
<path id="Vector_28" fill-rule="evenodd" clip-rule="evenodd" d="M11.8555 11.522V0L23.4108 5.75266L11.8555 11.522Z" fill="#00554E"/>
<path id="Vector_29" fill-rule="evenodd" clip-rule="evenodd" d="M11.8555 11.8555L23.4108 17.6248V6.08615L11.8555 11.8555Z" fill="black"/>
</g>
</svg>
