<svg width="32" height="50" viewBox="0 0 32 50" fill="none" xmlns="http://www.w3.org/2000/svg">
    <path fill-rule="evenodd" clip-rule="evenodd" d="M15.735 32.404V16.646L0 24.525l15.735 7.879z" fill="#000"/>
    <path fill-rule="evenodd" clip-rule="evenodd" d="M15.735 49.05V33.315L0 41.17l15.735 7.879zM16.19 49.05V33.315l15.781 7.856-15.78 7.879zM16.19 32.86l15.781 7.855V24.98l-15.78 7.88z" fill="#00554E"/>
    <path fill-rule="evenodd" clip-rule="evenodd" d="M16.19 32.404V16.646l15.781 7.879-15.78 7.879zM15.735 16.19 0 24.07V8.311l15.735 7.879z" fill="#000"/>
    <path fill-rule="evenodd" clip-rule="evenodd" d="m0 7.856 15.735 7.879V0L0 7.856zM16.19 15.735V0l15.781 7.856-15.78 7.879z" fill="#00554E"/>
    <path fill-rule="evenodd" clip-rule="evenodd" d="m16.19 16.19 15.781 7.88V8.311l-15.78 7.879z" fill="#000"/>
</svg>
