<svg width="24" height="37" viewBox="0 0 24 37" fill="none" xmlns="http://www.w3.org/2000/svg">
<g id="VisaLand Logo">
<path id="Vector" fill-rule="evenodd" clip-rule="evenodd" d="M11.5167 24.7V13.1667L0 18.9333L11.5167 24.7Z" fill="black"/>
<path id="Vector_2" fill-rule="evenodd" clip-rule="evenodd" d="M11.5167 36.8833V25.3666L0 31.1166L11.5167 36.8833Z" fill="#00554E"/>
<path id="Vector_3" fill-rule="evenodd" clip-rule="evenodd" d="M11.85 36.8833V25.3666L23.4 31.1166L11.85 36.8833Z" fill="#00554E"/>
<path id="Vector_4" fill-rule="evenodd" clip-rule="evenodd" d="M11.85 25.0334L23.4 30.7834V19.2667L11.85 25.0334Z" fill="#00554E"/>
<path id="Vector_5" fill-rule="evenodd" clip-rule="evenodd" d="M11.85 24.7V13.1667L23.4 18.9333L11.85 24.7Z" fill="black"/>
<path id="Vector_6" fill-rule="evenodd" clip-rule="evenodd" d="M11.5167 12.8333L0 18.6V7.06665L11.5167 12.8333Z" fill="black"/>
<path id="Vector_7" fill-rule="evenodd" clip-rule="evenodd" d="M0 6.73331L11.5167 12.5V0.983307L0 6.73331Z" fill="#00554E"/>
<path id="Vector_8" fill-rule="evenodd" clip-rule="evenodd" d="M11.85 12.5V0.983307L23.4 6.73331L11.85 12.5Z" fill="#00554E"/>
<path id="Vector_9" fill-rule="evenodd" clip-rule="evenodd" d="M11.85 12.8333L23.4 18.6V7.06665L11.85 12.8333Z" fill="black"/>
</g>
</svg>
